<?xml version="1.0" encoding="UTF-8"?>
<svg width="700pt" height="700pt" version="1.1" viewBox="0 0 700 700"
    xmlns="http://www.w3.org/2000/svg" xmlns:xlink="http://www.w3.org/1999/xlink">
    <g>
        <path
            d="m620.51 228.36-145.98 118.63 48.363 181.78c1.043 3.957-0.44922 8.1484-3.7617 10.551-3.3086 2.4062-7.7539 2.5312-11.195 0.31641l-157.94-102.14-157.94 102.14c-3.4414 2.2148-7.8867 2.0898-11.195-0.31641-3.3125-2.4023-4.8047-6.5938-3.7617-10.551l48.363-181.78-145.98-118.63c-3.1758-2.5859-4.4336-6.8594-3.168-10.75 1.2656-3.8945 4.7969-6.6094 8.8828-6.8359l187.83-10.18 67.715-175.52c1.4805-3.8164 5.1523-6.3281 9.2461-6.3281s7.7656 2.5117 9.2461 6.3281l67.719 175.52 187.83 10.18c4.0898 0.22656 7.6172 2.9414 8.8828 6.8359 1.2656 3.8906 0.007812 8.1641-3.1641 10.75z" />
    </g>
</svg>